# xmcd
#
# Track frame offsets:
#	150
#	11829
#	23432
#	35156
#	42725
#	53967
#	67511
#	81457
#	96996
#	116610
#
# Disc length: 1746 seconds
#
# Revision: 0
# Processed by: cddbd v1.5.2PL0 Copyright (c) Steve Scherf et al.
# Submitted via: EasyCDDAExtractor 2010.4.0.0
#
DISCID=8206d00a
DTITLE=X-Mas Hillbillies
DYEAR=1900
DGENRE=
TTITLE0=Grandma Got Run Over By A Trucker
TTITLE1=White Semi
TTITLE2=Ride Truckers Ride
TTITLE3=O Come Ye All Truckers
TTITLE4=Deck The Hauls
TTITLE5=God Rest Ye Weary Highway Men
TTITLE6=Hark Those Diesel Engines Sing
TTITLE7=Truckers USA
TTITLE8=Blowin' Horns
TTITLE9=Trucker's Wonderland
EXTD=
EXTT0=
EXTT1=
EXTT2=
EXTT3=
EXTT4=
EXTT5=
EXTT6=
EXTT7=
EXTT8=
EXTT9=
PLAYORDER=
